<svg width="118" height="44" viewBox="0 0 118 44" fill="none" xmlns="http://www.w3.org/2000/svg">
<path d="M4.22727 12.5455V30H2.11364V12.5455H4.22727ZM10.2038 22.125V30H8.19247V16.9091H10.1357V18.9545H10.3061C10.6129 18.2898 11.0788 17.7557 11.7038 17.3523C12.3288 16.9432 13.1357 16.7386 14.1243 16.7386C15.0107 16.7386 15.7862 16.9205 16.451 17.2841C17.1158 17.642 17.6328 18.1875 18.0021 18.9205C18.3714 19.6477 18.5561 20.5682 18.5561 21.6818V30H16.5447V21.8182C16.5447 20.7898 16.2777 19.9886 15.7436 19.4148C15.2095 18.8352 14.4766 18.5455 13.5447 18.5455C12.9027 18.5455 12.3288 18.6847 11.8232 18.9631C11.3232 19.2415 10.9283 19.6477 10.6385 20.1818C10.3487 20.7159 10.2038 21.3636 10.2038 22.125ZM28.0611 16.9091V18.6136H21.0043V16.9091H28.0611ZM23.1179 30V15.1023C23.1179 14.3523 23.294 13.7273 23.6463 13.2273C23.9986 12.7273 24.456 12.3523 25.0185 12.1023C25.581 11.8523 26.1747 11.7273 26.7997 11.7273C27.294 11.7273 27.6974 11.767 28.0099 11.8466C28.3224 11.9261 28.5554 12 28.7088 12.0682L28.1293 13.8068C28.027 13.7727 27.8849 13.7301 27.7031 13.679C27.527 13.6278 27.294 13.6023 27.0043 13.6023C26.3395 13.6023 25.8594 13.7699 25.5639 14.1051C25.2741 14.4403 25.1293 14.9318 25.1293 15.5795V30H23.1179ZM35.6591 30.2727C34.4773 30.2727 33.4403 29.9915 32.5483 29.429C31.6619 28.8665 30.9688 28.0795 30.4688 27.0682C29.9744 26.0568 29.7273 24.875 29.7273 23.5227C29.7273 22.1591 29.9744 20.9687 30.4688 19.9517C30.9688 18.9347 31.6619 18.1449 32.5483 17.5824C33.4403 17.0199 34.4773 16.7386 35.6591 16.7386C36.8409 16.7386 37.875 17.0199 38.7614 17.5824C39.6534 18.1449 40.3466 18.9347 40.8409 19.9517C41.3409 20.9687 41.5909 22.1591 41.5909 23.5227C41.5909 24.875 41.3409 26.0568 40.8409 27.0682C40.3466 28.0795 39.6534 28.8665 38.7614 29.429C37.875 29.9915 36.8409 30.2727 35.6591 30.2727ZM35.6591 28.4659C36.5568 28.4659 37.2955 28.2358 37.875 27.7756C38.4545 27.3153 38.8835 26.7102 39.1619 25.9602C39.4403 25.2102 39.5795 24.3977 39.5795 23.5227C39.5795 22.6477 39.4403 21.8324 39.1619 21.0767C38.8835 20.321 38.4545 19.7102 37.875 19.2443C37.2955 18.7784 36.5568 18.5455 35.6591 18.5455C34.7614 18.5455 34.0227 18.7784 33.4432 19.2443C32.8636 19.7102 32.4347 20.321 32.1562 21.0767C31.8778 21.8324 31.7386 22.6477 31.7386 23.5227C31.7386 24.3977 31.8778 25.2102 32.1562 25.9602C32.4347 26.7102 32.8636 27.3153 33.4432 27.7756C34.0227 28.2358 34.7614 28.4659 35.6591 28.4659ZM48.0277 12.5455V30H44.3374V12.5455H48.0277ZM54.6264 22.4318V30H50.9957V16.9091H54.456V19.2188H54.6094C54.8991 18.4574 55.3849 17.8551 56.0668 17.4119C56.7486 16.9631 57.5753 16.7386 58.5469 16.7386C59.456 16.7386 60.2486 16.9375 60.9247 17.3352C61.6009 17.733 62.1264 18.3011 62.5014 19.0398C62.8764 19.7727 63.0639 20.6477 63.0639 21.6648V30H59.4332V22.3125C59.4389 21.5114 59.2344 20.8864 58.8196 20.4375C58.4048 19.983 57.8338 19.7557 57.1065 19.7557C56.6179 19.7557 56.1861 19.8608 55.8111 20.071C55.4418 20.2812 55.152 20.5881 54.9418 20.9915C54.7372 21.3892 54.6321 21.8693 54.6264 22.4318ZM77.6612 16.9091L73.0845 30H68.9936L64.4169 16.9091H68.2521L70.9709 26.2756H71.1072L73.8175 16.9091H77.6612ZM85.0632 30.2557C83.7166 30.2557 82.5575 29.983 81.5859 29.4375C80.62 28.8864 79.8757 28.108 79.353 27.1023C78.8303 26.0909 78.5689 24.8949 78.5689 23.5142C78.5689 22.1676 78.8303 20.9858 79.353 19.9688C79.8757 18.9517 80.6115 18.1591 81.5604 17.5909C82.5149 17.0227 83.6342 16.7386 84.9183 16.7386C85.782 16.7386 86.5859 16.8778 87.3303 17.1562C88.0803 17.429 88.7337 17.8409 89.2905 18.392C89.853 18.9432 90.2905 19.6364 90.603 20.4716C90.9155 21.3011 91.0717 22.2727 91.0717 23.3864V24.3835H80.0178V22.1335H87.6541C87.6541 21.6108 87.5405 21.1477 87.3132 20.7443C87.0859 20.3409 86.7706 20.0256 86.3672 19.7983C85.9695 19.5653 85.5064 19.4489 84.978 19.4489C84.4268 19.4489 83.9382 19.5767 83.5121 19.8324C83.0916 20.0824 82.7621 20.4205 82.5234 20.8466C82.2848 21.267 82.1626 21.7358 82.157 22.2528V24.392C82.157 25.0398 82.2763 25.5994 82.5149 26.071C82.7592 26.5426 83.103 26.9062 83.5462 27.1619C83.9893 27.4176 84.5149 27.5455 85.1229 27.5455C85.5263 27.5455 85.8956 27.4886 86.2308 27.375C86.5661 27.2614 86.853 27.0909 87.0916 26.8636C87.3303 26.6364 87.5121 26.358 87.6371 26.0284L90.995 26.25C90.8246 27.0568 90.4751 27.7614 89.9467 28.3636C89.424 28.9602 88.7479 29.4261 87.9183 29.7614C87.0945 30.0909 86.1428 30.2557 85.0632 30.2557ZM117.068 16.9091V19.6364H109.185V16.9091H117.068ZM110.974 13.7727H114.605V25.9773C114.605 26.3125 114.656 26.5739 114.759 26.7614C114.861 26.9432 115.003 27.071 115.185 27.1449C115.372 27.2187 115.588 27.2557 115.832 27.2557C116.003 27.2557 116.173 27.2415 116.344 27.2131C116.514 27.179 116.645 27.1534 116.736 27.1364L117.307 29.8381C117.125 29.8949 116.869 29.9602 116.54 30.0341C116.21 30.1136 115.81 30.1619 115.338 30.179C114.463 30.2131 113.696 30.0966 113.037 29.8295C112.384 29.5625 111.875 29.1477 111.511 28.5852C111.148 28.0227 110.969 27.3125 110.974 26.4545V13.7727Z" fill="white"/>
<path d="M103.165 35.6731L95.636 7.57345L97.4361 7.09111L104.965 35.1908L103.165 35.6731ZM102.896 15.5691C102.571 14.7072 102.01 14.1204 101.212 13.8085C100.415 13.4967 99.4458 13.4937 98.3043 13.7995C97.5286 14.0074 96.9031 14.2926 96.4277 14.6553C95.9504 15.0107 95.62 15.4168 95.4366 15.8738C95.2605 16.3288 95.2371 16.7978 95.3665 17.2808C95.4597 17.6872 95.638 18.0159 95.9013 18.2669C96.172 18.5159 96.5014 18.7061 96.8895 18.8374C97.2756 18.9614 97.7062 19.046 98.181 19.0913C98.6539 19.1293 99.1503 19.1375 99.6699 19.1159L101.819 19.0577C102.858 19.0145 103.837 19.066 104.755 19.2123C105.672 19.3585 106.503 19.6184 107.246 19.9918C107.989 20.3652 108.622 20.87 109.146 21.5062C109.676 22.1405 110.071 22.9249 110.329 23.8596C110.69 25.2373 110.659 26.5242 110.234 27.7203C109.815 28.9071 109.029 29.9531 107.875 30.8583C106.727 31.7541 105.238 32.4472 103.409 32.9373C101.594 33.4236 99.9388 33.5691 98.4433 33.3737C96.9552 33.1764 95.6882 32.6335 94.6423 31.7452C93.6018 30.8475 92.8466 29.595 92.3767 27.9876L96.9758 26.7553C97.229 27.4953 97.6135 28.0667 98.1293 28.4697C98.6505 28.8634 99.2673 29.102 99.9799 29.1856C100.698 29.2599 101.467 29.1872 102.286 28.9676C103.091 28.7519 103.759 28.4476 104.289 28.0546C104.826 27.6597 105.203 27.2095 105.421 26.7042C105.638 26.1988 105.675 25.6754 105.529 25.1339C105.394 24.629 105.13 24.2448 104.738 23.9812C104.353 23.7157 103.843 23.5387 103.208 23.4502C102.58 23.3597 101.829 23.3254 100.957 23.3475L98.3443 23.3887C96.3255 23.4355 94.6359 23.1157 93.2755 22.4292C91.9151 21.7428 91.0161 20.568 90.5783 18.905C90.2063 17.5458 90.2499 16.2597 90.7091 15.0464C91.1756 13.8313 91.9764 12.7657 93.1113 11.8499C94.2463 10.934 95.6334 10.2565 97.2725 9.81726C98.9409 9.37021 100.474 9.26541 101.871 9.50285C103.275 9.73834 104.461 10.2715 105.428 11.1024C106.396 11.9333 107.07 13.0153 107.451 14.3486L102.896 15.5691Z" fill="#00CBCA"/>
</svg>
